# xmcd CD database file
#
# Track frame offsets:
#	150
#	9242
#	16520
#	26980
#	39097
#	51676
#	62367
#	70770
#	79592
#	85077
#	99685
#	108480
#	133325
#	144020
#	156875
#	173550
#	191855
#	210725
#	217675
#
# Disc length: 3025 seconds
#
# Revision: 1
# Processed by: cddbd v1.5.2PL0 Copyright (c) Steve Scherf et al.
# Submitted via: CDex 1.51
#
DISCID=f30bcf13
DTITLE=Kärnten - Schnittpunkt vokal
DYEAR=1981
DGENRE=Folk
TTITLE0=Im Villacher Stadion
TTITLE1=Schau Diandle da Hahn
TTITLE2=A Voegale han I gfangan
TTITLE3=Es wollt ein Jaeger gehn jagen
TTITLE4=Waldlust
TTITLE5=Wann das Diandle schean tuat
TTITLE6=Mei Muata sogat's gern
TTITLE7=Mei allerliabsta Bruada
TTITLE8=Auf deutsch hasst er Teufl
TTITLE9=Guete Nacht o Welt
TTITLE10=Fernweh
TTITLE11=Ollewal
TTITLE12=Der erste Schnee
TTITLE13=Warum beklagst du
TTITLE14=Wenn da Tog
TTITLE15=Waer ich einer Deiner Augenaepfel
TTITLE16=Schatten
TTITLE17=Meada
TTITLE18=Ich sitze am ausgebrannten Minarett
EXTD=YEAR: 1981
EXTT0=
EXTT1=
EXTT2=
EXTT3=
EXTT4=
EXTT5=
EXTT6=
EXTT7=
EXTT8=
EXTT9=
EXTT10=
EXTT11=
EXTT12=
EXTT13=
EXTT14=
EXTT15=
EXTT16=
EXTT17=
EXTT18=
PLAYORDER=
